<?xml version="1.0" encoding="UTF-8" standalone="no"?>
<!DOCTYPE svg PUBLIC "-//W3C//DTD SVG 1.1//EN"
 "http://www.w3.org/Graphics/SVG/1.1/DTD/svg11.dtd">
<!-- Generated by graphviz version 12.2.0 (20241103.1931)
 -->
<!-- Pages: 1 -->
<svg width="503pt" height="360pt"
 viewBox="0.00 0.00 502.83 359.80" xmlns="http://www.w3.org/2000/svg" xmlns:xlink="http://www.w3.org/1999/xlink">
<g id="graph0" class="graph" transform="scale(1 1) rotate(0) translate(4 355.8)">
<polygon fill="#333333" stroke="none" points="-4,4 -4,-355.8 498.83,-355.8 498.83,4 -4,4"/>
<text text-anchor="middle" x="247.41" y="-7.55" font-family="Times New Roman,serif" font-size="16.00" fill="white">Network Map</text>
<!-- R1 -->
<g id="node1" class="node">
<title>R1</title>
<polygon fill="#006699" stroke="#006699" points="88.62,-225.95 13.77,-225.95 13.77,-152.6 88.62,-152.6 88.62,-225.95"/>
<text text-anchor="middle" x="51.2" y="-183.85" font-family="Helvetica,sans-Serif" font-size="14.00" fill="white">R1</text>
</g>
<!-- SW1 -->
<g id="node2" class="node">
<title>SW1</title>
<polygon fill="#006699" stroke="#006699" points="278,-100.1 190.4,-100.1 190.4,-26.75 278,-26.75 278,-100.1"/>
<text text-anchor="middle" x="234.2" y="-58" font-family="Helvetica,sans-Serif" font-size="14.00" fill="white">SW1</text>
</g>
<!-- SW1&#45;&#45;R1 -->
<g id="edge1" class="edge">
<title>SW1&#45;&#45;R1</title>
<path fill="none" stroke="green" stroke-dasharray="5,2" d="M190.18,-65.72C150.61,-69.38 93.98,-81.27 62.2,-118.1 54.14,-127.44 50.7,-140.19 49.5,-152.26"/>
<text text-anchor="middle" x="111.7" y="-121.3" font-family="Courier,monospace" font-size="14.00" fill="white"> &#160;&#160;&#160;&#160;&#160;&#160;&#160;&#160;&#160;&#160;&#160;</text>
<text text-anchor="middle" x="24.75" y="-138.96" font-family="Courier,monospace" font-size="14.00" fill="white">Eth0/0</text>
<text text-anchor="middle" x="165.43" y="-52.42" font-family="Courier,monospace" font-size="14.00" fill="white">Eth0/1</text>
</g>
<!-- R3 -->
<g id="node3" class="node">
<title>R3</title>
<polygon fill="#006699" stroke="#006699" points="210.62,-225.95 135.77,-225.95 135.77,-152.6 210.62,-152.6 210.62,-225.95"/>
<text text-anchor="middle" x="173.2" y="-183.85" font-family="Helvetica,sans-Serif" font-size="14.00" fill="white">R3</text>
</g>
<!-- SW1&#45;&#45;R3 -->
<g id="edge3" class="edge">
<title>SW1&#45;&#45;R3</title>
<path fill="none" stroke="green" stroke-dasharray="5,2" d="M190.03,-92.49C182,-99.79 174.74,-108.37 170.2,-118.1 165.3,-128.6 164.45,-140.97 165.32,-152.38"/>
<text text-anchor="middle" x="219.7" y="-121.3" font-family="Courier,monospace" font-size="14.00" fill="white"> &#160;&#160;&#160;&#160;&#160;&#160;&#160;&#160;&#160;&#160;&#160;</text>
<text text-anchor="middle" x="140.57" y="-139.08" font-family="Courier,monospace" font-size="14.00" fill="white">Eth0/0</text>
<text text-anchor="middle" x="165.28" y="-79.19" font-family="Courier,monospace" font-size="14.00" fill="white">Eth0/3</text>
</g>
<!-- R2 -->
<g id="node4" class="node">
<title>R2</title>
<polygon fill="#006699" stroke="#006699" points="332.62,-225.95 257.77,-225.95 257.77,-152.6 332.62,-152.6 332.62,-225.95"/>
<text text-anchor="middle" x="295.2" y="-183.85" font-family="Helvetica,sans-Serif" font-size="14.00" fill="white">R2</text>
</g>
<!-- SW1&#45;&#45;R2 -->
<g id="edge2" class="edge">
<title>SW1&#45;&#45;R2</title>
<path fill="none" stroke="green" stroke-dasharray="5,2" d="M262.71,-100.37C266.55,-106.11 270.2,-112.13 273.2,-118.1 278.59,-128.82 282.99,-141.13 286.4,-152.42"/>
<text text-anchor="middle" x="329.18" y="-121.3" font-family="Courier,monospace" font-size="14.00" fill="white"> &#160;&#160;&#160;&#160;&#160;&#160;&#160;&#160;&#160;&#160;&#160;</text>
<text text-anchor="middle" x="261.65" y="-139.12" font-family="Courier,monospace" font-size="14.00" fill="white">Eth0/0</text>
<text text-anchor="middle" x="237.96" y="-103.57" font-family="Courier,monospace" font-size="14.00" fill="white">Eth0/2</text>
</g>
<!-- R6 -->
<g id="node5" class="node">
<title>R6</title>
<polygon fill="#006699" stroke="#006699" points="454.62,-225.95 379.77,-225.95 379.77,-152.6 454.62,-152.6 454.62,-225.95"/>
<text text-anchor="middle" x="417.2" y="-183.85" font-family="Helvetica,sans-Serif" font-size="14.00" fill="white">R6</text>
</g>
<!-- SW1&#45;&#45;R6 -->
<g id="edge4" class="edge">
<title>SW1&#45;&#45;R6</title>
<path fill="none" stroke="green" stroke-dasharray="5,2" d="M278.2,-71.36C310.26,-78.39 353.02,-92.09 382.2,-118.1 392.46,-127.25 400.08,-140.1 405.53,-152.31"/>
<text text-anchor="middle" x="445.33" y="-121.3" font-family="Courier,monospace" font-size="14.00" fill="white"> &#160;&#160;&#160;&#160;&#160;&#160;&#160;&#160;&#160;&#160;&#160;</text>
<text text-anchor="middle" x="380.78" y="-139.01" font-family="Courier,monospace" font-size="14.00" fill="white">Eth0/1</text>
<text text-anchor="middle" x="302.95" y="-58.06" font-family="Courier,monospace" font-size="14.00" fill="white">Eth0/5</text>
</g>
<!-- R4 -->
<g id="node6" class="node">
<title>R4</title>
<polygon fill="#006699" stroke="#006699" points="88.62,-351.8 13.77,-351.8 13.77,-278.45 88.62,-278.45 88.62,-351.8"/>
<text text-anchor="middle" x="51.2" y="-309.7" font-family="Helvetica,sans-Serif" font-size="14.00" fill="white">R4</text>
</g>
<!-- R3&#45;&#45;R4 -->
<g id="edge6" class="edge">
<title>R3&#45;&#45;R4</title>
<path fill="none" stroke="green" stroke-dasharray="5,2" d="M135.33,-208.18C107.89,-221.45 74.83,-238.2 70.2,-243.95 62.37,-253.69 57.75,-266.39 55.03,-278.3"/>
<text text-anchor="middle" x="119.7" y="-247.15" font-family="Courier,monospace" font-size="14.00" fill="white"> &#160;&#160;&#160;&#160;&#160;&#160;&#160;&#160;&#160;&#160;&#160;</text>
<text text-anchor="middle" x="30.28" y="-265" font-family="Courier,monospace" font-size="14.00" fill="white">Eth0/0</text>
<text text-anchor="middle" x="110.58" y="-211.38" font-family="Courier,monospace" font-size="14.00" fill="white">Eth0/1</text>
</g>
<!-- R5 -->
<g id="node7" class="node">
<title>R5</title>
<polygon fill="#006699" stroke="#006699" points="210.62,-351.8 135.77,-351.8 135.77,-278.45 210.62,-278.45 210.62,-351.8"/>
<text text-anchor="middle" x="173.2" y="-309.7" font-family="Helvetica,sans-Serif" font-size="14.00" fill="white">R5</text>
</g>
<!-- R3&#45;&#45;R5 -->
<g id="edge7" class="edge">
<title>R3&#45;&#45;R5</title>
<path fill="none" stroke="green" stroke-dasharray="5,2" d="M173.2,-226.43C173.2,-242.71 173.2,-261.88 173.2,-278.14"/>
<text text-anchor="middle" x="222.7" y="-247.15" font-family="Courier,monospace" font-size="14.00" fill="white"> &#160;&#160;&#160;&#160;&#160;&#160;&#160;&#160;&#160;&#160;&#160;</text>
<text text-anchor="middle" x="148.45" y="-264.84" font-family="Courier,monospace" font-size="14.00" fill="white">Eth0/0</text>
<text text-anchor="middle" x="148.45" y="-229.63" font-family="Courier,monospace" font-size="14.00" fill="white">Eth0/2</text>
</g>
<!-- SW2 -->
<g id="node8" class="node">
<title>SW2</title>
<polygon fill="#006699" stroke="#006699" points="339,-351.8 251.4,-351.8 251.4,-278.45 339,-278.45 339,-351.8"/>
<text text-anchor="middle" x="295.2" y="-309.7" font-family="Helvetica,sans-Serif" font-size="14.00" fill="white">SW2</text>
</g>
<!-- R2&#45;&#45;SW2 -->
<g id="edge5" class="edge">
<title>R2&#45;&#45;SW2</title>
<path fill="none" stroke="green" stroke-dasharray="5,2" d="M295.2,-226.43C295.2,-242.71 295.2,-261.88 295.2,-278.14"/>
<text text-anchor="middle" x="344.7" y="-247.15" font-family="Courier,monospace" font-size="14.00" fill="white"> &#160;&#160;&#160;&#160;&#160;&#160;&#160;&#160;&#160;&#160;&#160;</text>
<text text-anchor="middle" x="266.32" y="-264.84" font-family="Courier,monospace" font-size="14.00" fill="white">Eth0/11</text>
<text text-anchor="middle" x="270.45" y="-229.63" font-family="Courier,monospace" font-size="14.00" fill="white">Eth0/1</text>
</g>
</g>
</svg>
