<?xml version="1.0" encoding="UTF-8" standalone="no"?>
<!DOCTYPE svg PUBLIC "-//W3C//DTD SVG 1.1//EN"
 "http://www.w3.org/Graphics/SVG/1.1/DTD/svg11.dtd">
<!-- Generated by graphviz version 2.38.0 (20140413.2041)
 -->
<!-- Title: %3 Pages: 1 -->
<svg width="610pt" height="231pt"
 viewBox="0.00 0.00 609.66 231.00" xmlns="http://www.w3.org/2000/svg" xmlns:xlink="http://www.w3.org/1999/xlink">
<g id="graph0" class="graph" transform="scale(1 1) rotate(0) translate(4 227)">
<title>%3</title>
<polygon fill="#333333" stroke="none" points="-4,4 -4,-227 605.664,-227 605.664,4 -4,4"/>
<text text-anchor="middle" x="300.832" y="-9.2" font-family="Times,serif" font-size="16.00" fill="white">Network Map</text>
<!-- R3 -->
<g id="node1" class="node"><title>R3</title>
<polygon fill="#006699" stroke="#006699" points="312.164,-99 235.164,-99 235.164,-26 312.164,-26 312.164,-99"/>
<text text-anchor="middle" x="273.664" y="-58.8" font-family="Helvetica,sans-Serif" font-size="14.00" fill="white">R3</text>
</g>
<!-- R4 -->
<g id="node2" class="node"><title>R4</title>
<polygon fill="#006699" stroke="#006699" points="127.164,-223 50.1643,-223 50.1643,-150 127.164,-150 127.164,-223"/>
<text text-anchor="middle" x="88.6643" y="-182.8" font-family="Helvetica,sans-Serif" font-size="14.00" fill="white">R4</text>
</g>
<!-- R3&#45;&#45;R4 -->
<g id="edge1" class="edge"><title>R3&#45;&#45;R4</title>
<path fill="none" stroke="green" stroke-dasharray="5,2" d="M234.927,-66.1966C172.519,-71.4361 54.1259,-85.3784 28.6643,-117 15.7748,-133.008 31.4486,-150.422 50,-163.686"/>
<text text-anchor="middle" x="78.6643" y="-120.8" font-family="Courier,monospace" font-size="14.00" fill="white"> &#160;&#160;&#160;&#160;&#160;&#160;&#160;&#160;&#160;&#160;&#160;</text>
<text text-anchor="middle" x="25" y="-152.486" font-family="Courier,monospace" font-size="14.00" fill="white">Eth0/0</text>
<text text-anchor="middle" x="209.927" y="-54.9966" font-family="Courier,monospace" font-size="14.00" fill="white">Eth0/1</text>
</g>
<!-- SW1 -->
<g id="node3" class="node"><title>SW1</title>
<polygon fill="#006699" stroke="#006699" points="319.664,-223 227.664,-223 227.664,-150 319.664,-150 319.664,-223"/>
<text text-anchor="middle" x="273.664" y="-182.8" font-family="Helvetica,sans-Serif" font-size="14.00" fill="white">SW1</text>
</g>
<!-- R3&#45;&#45;SW1 -->
<g id="edge5" class="edge"><title>R3&#45;&#45;SW1</title>
<path fill="none" stroke="green" stroke-dasharray="5,2" d="M273.664,-99.1154C273.664,-115.01 273.664,-133.704 273.664,-149.629"/>
<text text-anchor="middle" x="323.664" y="-120.8" font-family="Courier,monospace" font-size="14.00" fill="white"> &#160;&#160;&#160;&#160;&#160;&#160;&#160;&#160;&#160;&#160;&#160;</text>
<text text-anchor="middle" x="248.664" y="-138.429" font-family="Courier,monospace" font-size="14.00" fill="white">Eth0/3</text>
<text text-anchor="middle" x="248.664" y="-102.915" font-family="Courier,monospace" font-size="14.00" fill="white">Eth0/0</text>
</g>
<!-- R5 -->
<g id="node4" class="node"><title>R5</title>
<polygon fill="#006699" stroke="#006699" points="496.164,-223 419.164,-223 419.164,-150 496.164,-150 496.164,-223"/>
<text text-anchor="middle" x="457.664" y="-182.8" font-family="Helvetica,sans-Serif" font-size="14.00" fill="white">R5</text>
</g>
<!-- R3&#45;&#45;R5 -->
<g id="edge2" class="edge"><title>R3&#45;&#45;R5</title>
<path fill="none" stroke="green" stroke-dasharray="5,2" d="M312.608,-81.8038C331.819,-91.4091 355.024,-103.891 374.664,-117 389.738,-127.061 405.305,-139.332 418.827,-150.694"/>
<text text-anchor="middle" x="444.664" y="-120.8" font-family="Courier,monospace" font-size="14.00" fill="white"> &#160;&#160;&#160;&#160;&#160;&#160;&#160;&#160;&#160;&#160;&#160;</text>
<text text-anchor="middle" x="393.827" y="-139.494" font-family="Courier,monospace" font-size="14.00" fill="white">Eth0/0</text>
<text text-anchor="middle" x="337.608" y="-70.6038" font-family="Courier,monospace" font-size="14.00" fill="white">Eth0/2</text>
</g>
<!-- R4&#45;&#45;R3 -->
<g id="edge3" class="edge"><title>R4&#45;&#45;R3</title>
<path fill="none" stroke="green" stroke-dasharray="5,2" d="M127.212,-149.824C140.206,-138.65 155.112,-126.713 169.664,-117 190.268,-103.248 214.853,-90.4528 234.946,-80.8258"/>
<text text-anchor="middle" x="219.664" y="-120.8" font-family="Courier,monospace" font-size="14.00" fill="white"> &#160;&#160;&#160;&#160;&#160;&#160;&#160;&#160;&#160;&#160;&#160;</text>
<text text-anchor="middle" x="209.946" y="-84.6258" font-family="Courier,monospace" font-size="14.00" fill="white">Eth0/1</text>
<text text-anchor="middle" x="102.212" y="-138.624" font-family="Courier,monospace" font-size="14.00" fill="white">Eth0/0</text>
</g>
<!-- R5&#45;&#45;R3 -->
<g id="edge4" class="edge"><title>R5&#45;&#45;R3</title>
<path fill="none" stroke="green" stroke-dasharray="5,2" d="M495.314,-149.779C502.49,-138.842 505.599,-127.053 497.664,-117 474.998,-88.2831 370.273,-73.2838 312.39,-67.0646"/>
<text text-anchor="middle" x="551.664" y="-120.8" font-family="Courier,monospace" font-size="14.00" fill="white"> &#160;&#160;&#160;&#160;&#160;&#160;&#160;&#160;&#160;&#160;&#160;</text>
<text text-anchor="middle" x="337.39" y="-55.8646" font-family="Courier,monospace" font-size="14.00" fill="white">Eth0/2</text>
<text text-anchor="middle" x="470.314" y="-138.579" font-family="Courier,monospace" font-size="14.00" fill="white">Eth0/0</text>
</g>
</g>
</svg>
